<?xml version="1.0" encoding="UTF-8" standalone="no"?>
<!-- Created with Inkscape (http://www.inkscape.org/) -->

<svg
   version="1.1"
   id="svg1"
   width="58.104965"
   height="56.153206"
   viewBox="0 0 58.104965 56.153205"
   xmlns="http://www.w3.org/2000/svg"
   xmlns:svg="http://www.w3.org/2000/svg">
  <defs
     id="defs1" />
  <g
     id="g1"
     transform="translate(-67.50618,-83.496515)">
    <path
       id="path1"
       d="m 93.6299,111.77 0.5566,-3.583 c 0.1541,-0.989 -0.523,-1.915 -1.5119,-2.068 l -1.0894,-0.17 c -5.5139,-0.857 -8.0324,-7.3599 -4.5337,-11.7078 l 0.6906,-0.8588 c 0.628,-0.7795 0.503,-1.9198 -0.2765,-2.5478 L 84.642,88.5619 c -0.7796,-0.6279 -1.9198,-0.503 -2.5478,0.2765 l -0.6895,0.8574 c -3.4988,4.3479 -10.3924,3.2759 -12.4073,-1.9271 l -0.398,-1.0276 C 68.2378,85.8074 67.1887,85.344 66.255,85.7056 l -3.3801,1.309 c -0.9337,0.3616 -1.3971,1.4108 -1.0355,2.3445 l 0.398,1.0275 c 2.0149,5.203 -2.3584,10.6384 -7.8731,9.7814 L 53.2772,99.9983 C 52.288,99.8452 51.361,100.521 51.2078,101.51 l -0.5565,3.582 c -0.1532,0.989 0.5224,1.916 1.5117,2.069 l 1.0894,0.17 c 5.514,0.857 8.0324,7.36 4.5337,11.708 l -0.6906,0.859 c -0.628,0.779 -0.503,1.92 0.2765,2.548 l 2.8237,2.272 c 0.7795,0.628 1.9197,0.503 2.5478,-0.276 l 0.6894,-0.858 c 3.4988,-4.347 10.3924,-3.275 12.4073,1.928 l 0.398,1.027 c 0.3616,0.934 1.4107,1.397 2.3445,1.036 l 3.38,-1.309 c 0.9337,-0.362 1.3971,-1.411 1.0355,-2.345 l -0.3979,-1.027 c -2.015,-5.203 2.3587,-10.637 7.8723,-9.782 l 1.0878,0.17 c 0.9893,0.153 1.9162,-0.523 2.0695,-1.512 z m -17.9386,3.32 c -4.6637,1.806 -9.9164,-0.514 -11.7225,-5.177 -1.8061,-4.664 0.5139,-9.9168 5.1776,-11.7229 4.6637,-1.8061 9.9163,0.5139 11.7224,5.1779 1.8061,4.663 -0.5139,9.916 -5.1775,11.722 z"
       style="fill:currentColor;fill-opacity:1;fill-rule:evenodd;stroke:none"
       transform="matrix(1.3333333,0,0,-1.3333333,0,253.76)" />
  </g>
</svg>
